<svg xmlns="http://www.w3.org/2000/svg" xmlns:xlink="http://www.w3.org/1999/xlink" width="50" zoomAndPan="magnify" viewBox="0 0 37.5 44.999999" height="60" preserveAspectRatio="xMidYMid meet" version="1.0"><defs><clipPath id="5caabeff46"><path d="M 5 7.964844 L 37.007812 7.964844 L 37.007812 44.703125 L 5 44.703125 Z M 5 7.964844 " clip-rule="nonzero"/></clipPath></defs><g clip-path="url(#5caabeff46)"><path fill="#7083f5" d="M 37.121094 28.472656 L 37.121094 12.894531 C 37.121094 12.523438 36.941406 12.171875 36.636719 11.957031 C 31.472656 8.285156 26.300781 7.949219 21.105469 7.957031 C 15.941406 7.964844 10.773438 8.296875 5.582031 11.953125 C 5.277344 12.167969 5.097656 12.519531 5.097656 12.894531 C 5.097656 12.894531 5.097656 20.726562 5.097656 28.472656 C 5.097656 37.433594 12.265625 44.695312 21.109375 44.695312 L 21.109375 43.550781 C 21.109375 44.695312 21.109375 44.695312 21.109375 44.695312 C 29.949219 44.695312 37.121094 37.433594 37.121094 28.472656 Z M 34.859375 13.5 C 30.292969 10.453125 25.703125 10.242188 21.109375 10.246094 C 16.539062 10.25 11.949219 10.46875 7.355469 13.503906 L 7.355469 28.472656 C 7.355469 36.167969 13.511719 42.40625 21.109375 42.40625 C 21.109375 42.40625 21.109375 43.550781 21.109375 43.550781 L 21.109375 42.40625 C 28.703125 42.40625 34.859375 36.167969 34.859375 28.472656 Z M 34.859375 13.5 " fill-opacity="1" fill-rule="evenodd"/></g><path fill="#7083f5" d="M 28.191406 25.484375 C 28.191406 24.851562 27.683594 24.339844 27.0625 24.339844 L 15.15625 24.339844 C 14.53125 24.339844 14.027344 24.851562 14.027344 25.484375 L 14.027344 33.90625 C 14.027344 34.539062 14.53125 35.050781 15.15625 35.050781 L 27.0625 35.050781 C 27.683594 35.050781 28.191406 34.539062 28.191406 33.90625 Z M 28.191406 25.484375 " fill-opacity="1" fill-rule="evenodd"/><path fill="#7083f5" d="M 26.703125 23.269531 C 26.703125 21.765625 26.113281 20.324219 25.0625 19.261719 C 24.015625 18.199219 22.589844 17.601562 21.109375 17.601562 L 21.109375 18.746094 C 21.109375 17.601562 21.109375 17.601562 21.109375 17.601562 C 19.625 17.601562 18.203125 18.199219 17.152344 19.261719 C 16.101562 20.324219 15.515625 21.765625 15.515625 23.269531 C 15.515625 24.492188 15.515625 25.484375 15.515625 25.484375 C 15.515625 26.117188 16.019531 26.628906 16.644531 26.628906 L 25.574219 26.628906 C 26.195312 26.628906 26.703125 26.117188 26.703125 25.484375 Z M 24.441406 24.339844 L 24.441406 23.269531 C 24.441406 22.375 24.089844 21.515625 23.464844 20.878906 C 22.839844 20.246094 21.992188 19.890625 21.109375 19.890625 L 21.109375 18.746094 L 21.109375 19.890625 C 20.222656 19.890625 19.375 20.246094 18.75 20.878906 C 18.125 21.515625 17.773438 22.375 17.773438 23.269531 L 17.773438 24.339844 Z M 24.441406 24.339844 " fill-opacity="1" fill-rule="evenodd"/></svg>