<svg xmlns="http://www.w3.org/2000/svg" xmlns:xlink="http://www.w3.org/1999/xlink" width="1750" zoomAndPan="magnify" viewBox="0 0 1312.5 262.499992" height="350" preserveAspectRatio="xMidYMid meet" version="1.0"><defs><g/><clipPath id="dbd66ed15f"><path d="M 30.191406 29.804688 L 209.917969 29.804688 L 209.917969 231.996094 L 30.191406 231.996094 Z M 30.191406 29.804688 " clip-rule="nonzero"/></clipPath></defs><g clip-path="url(#dbd66ed15f)"><path fill="#7083f5" d="M 209.324219 142.640625 L 209.324219 56.921875 C 209.324219 54.871094 208.324219 52.949219 206.644531 51.769531 C 177.855469 31.554688 149.039062 29.722656 120.082031 29.757812 C 91.308594 29.792969 62.5 31.621094 33.558594 51.753906 C 31.867188 52.929688 30.859375 54.863281 30.859375 56.921875 C 30.859375 56.921875 30.859375 100.019531 30.859375 142.640625 C 30.859375 191.933594 70.808594 231.894531 120.089844 231.894531 L 120.089844 225.597656 C 120.089844 231.894531 120.089844 231.894531 120.089844 231.894531 C 169.375 231.894531 209.324219 191.933594 209.324219 142.640625 Z M 196.730469 60.257812 C 171.273438 43.5 145.695312 42.324219 120.097656 42.355469 C 94.636719 42.386719 69.058594 43.570312 43.453125 60.277344 L 43.453125 142.640625 C 43.453125 184.980469 77.761719 219.300781 120.089844 219.300781 C 120.089844 219.300781 120.089844 225.597656 120.089844 225.597656 L 120.089844 219.300781 C 162.417969 219.300781 196.730469 184.980469 196.730469 142.640625 Z M 196.730469 60.257812 " fill-opacity="1" fill-rule="evenodd"/></g><path fill="#7083f5" d="M 159.5625 126.191406 C 159.5625 122.714844 156.742188 119.894531 153.265625 119.894531 L 86.917969 119.894531 C 83.4375 119.894531 80.621094 122.714844 80.621094 126.191406 L 80.621094 172.535156 C 80.621094 176.011719 83.4375 178.832031 86.917969 178.832031 L 153.265625 178.832031 C 156.742188 178.832031 159.5625 176.011719 159.5625 172.535156 Z M 159.5625 126.191406 " fill-opacity="1" fill-rule="evenodd"/><path fill="#7083f5" d="M 151.269531 114.007812 C 151.269531 105.734375 147.980469 97.800781 142.136719 91.953125 C 136.289062 86.105469 128.359375 82.820312 120.089844 82.820312 L 120.089844 89.117188 C 120.089844 82.820312 120.089844 82.820312 120.089844 82.820312 C 111.820312 82.820312 103.890625 86.105469 98.046875 91.953125 C 92.199219 97.800781 88.914062 105.734375 88.914062 114.007812 C 88.914062 120.734375 88.914062 126.191406 88.914062 126.191406 C 88.914062 129.671875 91.730469 132.492188 95.210938 132.492188 L 144.972656 132.492188 C 148.449219 132.492188 151.269531 129.671875 151.269531 126.191406 Z M 138.675781 119.894531 L 138.675781 114.007812 C 138.675781 109.074219 136.714844 104.34375 133.234375 100.859375 C 129.746094 97.375 125.019531 95.414062 120.089844 95.414062 L 120.089844 89.117188 L 120.089844 95.414062 C 115.160156 95.414062 110.4375 97.375 106.949219 100.859375 C 103.464844 104.34375 101.507812 109.074219 101.507812 114.007812 L 101.507812 119.894531 Z M 138.675781 119.894531 " fill-opacity="1" fill-rule="evenodd"/><g fill="#000000" fill-opacity="1"><g transform="translate(254.919296, 182.067624)"><g><path d="M 46.15625 -106.515625 C 51.820312 -106.515625 57.359375 -105.6875 62.765625 -104.03125 C 68.171875 -102.382812 72.1875 -100.757812 74.8125 -99.15625 L 78.609375 -96.625 L 68.984375 -77.59375 C 68.222656 -78.101562 67.164062 -78.757812 65.8125 -79.5625 C 64.457031 -80.363281 61.921875 -81.441406 58.203125 -82.796875 C 54.484375 -84.148438 51.015625 -84.828125 47.796875 -84.828125 C 43.828125 -84.828125 40.765625 -83.976562 38.609375 -82.28125 C 36.453125 -80.59375 35.375 -78.3125 35.375 -75.4375 C 35.375 -74 35.878906 -72.664062 36.890625 -71.4375 C 37.910156 -70.21875 39.644531 -68.910156 42.09375 -67.515625 C 44.550781 -66.117188 46.707031 -65 48.5625 -64.15625 C 50.425781 -63.3125 53.300781 -62.046875 57.1875 -60.359375 C 63.945312 -57.484375 69.710938 -53.570312 74.484375 -48.625 C 79.265625 -43.675781 81.65625 -38.078125 81.65625 -31.828125 C 81.65625 -25.828125 80.578125 -20.585938 78.421875 -16.109375 C 76.265625 -11.628906 73.304688 -8.117188 69.546875 -5.578125 C 65.785156 -3.046875 61.625 -1.164062 57.0625 0.0625 C 52.5 1.289062 47.550781 1.90625 42.21875 1.90625 C 37.65625 1.90625 33.175781 1.4375 28.78125 0.5 C 24.382812 -0.425781 20.707031 -1.585938 17.75 -2.984375 C 14.789062 -4.378906 12.128906 -5.75 9.765625 -7.09375 C 7.398438 -8.445312 5.664062 -9.59375 4.5625 -10.53125 L 2.921875 -11.921875 L 14.828125 -31.953125 C 15.847656 -31.109375 17.242188 -30.03125 19.015625 -28.71875 C 20.796875 -27.40625 23.945312 -25.648438 28.46875 -23.453125 C 32.988281 -21.253906 36.984375 -20.15625 40.453125 -20.15625 C 50.503906 -20.15625 55.53125 -23.582031 55.53125 -30.4375 C 55.53125 -31.875 55.171875 -33.203125 54.453125 -34.421875 C 53.734375 -35.648438 52.460938 -36.875 50.640625 -38.09375 C 48.828125 -39.320312 47.222656 -40.296875 45.828125 -41.015625 C 44.441406 -41.734375 42.160156 -42.832031 38.984375 -44.3125 C 35.816406 -45.789062 33.472656 -46.910156 31.953125 -47.671875 C 25.609375 -50.796875 20.703125 -54.703125 17.234375 -59.390625 C 13.773438 -64.085938 12.046875 -69.144531 12.046875 -74.5625 C 12.046875 -83.9375 15.507812 -91.601562 22.4375 -97.5625 C 29.375 -103.53125 37.28125 -106.515625 46.15625 -106.515625 Z M 46.15625 -106.515625 "/></g></g></g><g fill="#000000" fill-opacity="1"><g transform="translate(340.130905, 182.067624)"><g><path d="M 73.421875 -29.421875 L 26.25 -29.421875 C 26.25 -24.847656 27.726562 -21.460938 30.6875 -19.265625 C 33.644531 -17.066406 36.859375 -15.96875 40.328125 -15.96875 C 43.960938 -15.96875 46.832031 -16.453125 48.9375 -17.421875 C 51.050781 -18.398438 53.460938 -20.328125 56.171875 -23.203125 L 72.40625 -15.09375 C 65.632812 -3.757812 54.390625 1.90625 38.671875 1.90625 C 28.867188 1.90625 20.457031 -1.453125 13.4375 -8.171875 C 6.425781 -14.898438 2.921875 -22.992188 2.921875 -32.453125 C 2.921875 -41.921875 6.425781 -50.035156 13.4375 -56.796875 C 20.457031 -63.566406 28.867188 -66.953125 38.671875 -66.953125 C 48.984375 -66.953125 57.375 -63.972656 63.84375 -58.015625 C 70.3125 -52.054688 73.546875 -43.535156 73.546875 -32.453125 C 73.546875 -30.929688 73.503906 -29.921875 73.421875 -29.421875 Z M 26.875 -41.84375 L 51.609375 -41.84375 C 51.097656 -45.226562 49.765625 -47.828125 47.609375 -49.640625 C 45.453125 -51.453125 42.6875 -52.359375 39.3125 -52.359375 C 35.59375 -52.359375 32.632812 -51.382812 30.4375 -49.4375 C 28.238281 -47.5 27.050781 -44.96875 26.875 -41.84375 Z M 26.875 -41.84375 "/></g></g></g><g fill="#000000" fill-opacity="1"><g transform="translate(416.593113, 182.067624)"><g><path d="M 42.21875 -48.5625 C 38 -48.5625 34.363281 -47 31.3125 -43.875 C 28.269531 -40.75 26.75 -36.988281 26.75 -32.59375 C 26.75 -28.101562 28.269531 -24.296875 31.3125 -21.171875 C 34.363281 -18.046875 38 -16.484375 42.21875 -16.484375 C 44.25 -16.484375 46.171875 -16.734375 47.984375 -17.234375 C 49.804688 -17.742188 51.140625 -18.253906 51.984375 -18.765625 L 53.125 -19.53125 L 60.734375 -3.9375 C 60.140625 -3.507812 59.3125 -2.976562 58.25 -2.34375 C 57.195312 -1.707031 54.789062 -0.84375 51.03125 0.25 C 47.269531 1.351562 43.234375 1.90625 38.921875 1.90625 C 29.367188 1.90625 20.976562 -1.453125 13.75 -8.171875 C 6.53125 -14.898438 2.921875 -22.953125 2.921875 -32.328125 C 2.921875 -41.796875 6.53125 -49.929688 13.75 -56.734375 C 20.976562 -63.546875 29.367188 -66.953125 38.921875 -66.953125 C 43.234375 -66.953125 47.207031 -66.441406 50.84375 -65.421875 C 54.476562 -64.410156 57.054688 -63.398438 58.578125 -62.390625 L 60.734375 -60.859375 L 53.125 -45.515625 C 50.332031 -47.546875 46.695312 -48.5625 42.21875 -48.5625 Z M 42.21875 -48.5625 "/></g></g></g><g fill="#000000" fill-opacity="1"><g transform="translate(478.85338, 182.067624)"><g><path d="M 28.78125 -65.046875 L 28.78125 -34.109375 C 28.78125 -27.679688 29.75 -23.113281 31.6875 -20.40625 C 33.632812 -17.707031 36.929688 -16.359375 41.578125 -16.359375 C 46.234375 -16.359375 49.53125 -17.707031 51.46875 -20.40625 C 53.414062 -23.113281 54.390625 -27.679688 54.390625 -34.109375 L 54.390625 -65.046875 L 76.84375 -65.046875 L 76.84375 -28.65625 C 76.84375 -17.832031 74.03125 -10.03125 68.40625 -5.25 C 62.78125 -0.476562 53.835938 1.90625 41.578125 1.90625 C 29.328125 1.90625 20.390625 -0.476562 14.765625 -5.25 C 9.148438 -10.03125 6.34375 -17.832031 6.34375 -28.65625 L 6.34375 -65.046875 Z M 28.78125 -65.046875 "/></g></g></g><g fill="#000000" fill-opacity="1"><g transform="translate(562.036147, 182.067624)"><g><path d="M 7.609375 0 L 7.609375 -65.046875 L 30.046875 -65.046875 L 30.046875 -55.65625 L 30.296875 -55.65625 C 30.472656 -56 30.75 -56.421875 31.125 -56.921875 C 31.507812 -57.429688 32.332031 -58.320312 33.59375 -59.59375 C 34.863281 -60.863281 36.21875 -62.003906 37.65625 -63.015625 C 39.09375 -64.035156 40.953125 -64.945312 43.234375 -65.75 C 45.515625 -66.550781 47.84375 -66.953125 50.21875 -66.953125 C 52.664062 -66.953125 55.070312 -66.613281 57.4375 -65.9375 C 59.800781 -65.257812 61.535156 -64.582031 62.640625 -63.90625 L 64.40625 -62.890625 L 55.03125 -43.875 C 52.238281 -46.238281 48.347656 -47.421875 43.359375 -47.421875 C 40.660156 -47.421875 38.335938 -46.828125 36.390625 -45.640625 C 34.441406 -44.460938 33.066406 -43.023438 32.265625 -41.328125 C 31.460938 -39.640625 30.890625 -38.203125 30.546875 -37.015625 C 30.210938 -35.835938 30.046875 -34.910156 30.046875 -34.234375 L 30.046875 0 Z M 7.609375 0 "/></g></g></g><g fill="#000000" fill-opacity="1"><g transform="translate(625.18405, 182.067624)"><g><path d="M 73.421875 -29.421875 L 26.25 -29.421875 C 26.25 -24.847656 27.726562 -21.460938 30.6875 -19.265625 C 33.644531 -17.066406 36.859375 -15.96875 40.328125 -15.96875 C 43.960938 -15.96875 46.832031 -16.453125 48.9375 -17.421875 C 51.050781 -18.398438 53.460938 -20.328125 56.171875 -23.203125 L 72.40625 -15.09375 C 65.632812 -3.757812 54.390625 1.90625 38.671875 1.90625 C 28.867188 1.90625 20.457031 -1.453125 13.4375 -8.171875 C 6.425781 -14.898438 2.921875 -22.992188 2.921875 -32.453125 C 2.921875 -41.921875 6.425781 -50.035156 13.4375 -56.796875 C 20.457031 -63.566406 28.867188 -66.953125 38.671875 -66.953125 C 48.984375 -66.953125 57.375 -63.972656 63.84375 -58.015625 C 70.3125 -52.054688 73.546875 -43.535156 73.546875 -32.453125 C 73.546875 -30.929688 73.503906 -29.921875 73.421875 -29.421875 Z M 26.875 -41.84375 L 51.609375 -41.84375 C 51.097656 -45.226562 49.765625 -47.828125 47.609375 -49.640625 C 45.453125 -51.453125 42.6875 -52.359375 39.3125 -52.359375 C 35.59375 -52.359375 32.632812 -51.382812 30.4375 -49.4375 C 28.238281 -47.5 27.050781 -44.96875 26.875 -41.84375 Z M 26.875 -41.84375 "/></g></g></g><g fill="#000000" fill-opacity="1"><g transform="translate(701.646258, 182.067624)"><g/></g></g><g fill="#000000" fill-opacity="1"><g transform="translate(736.26349, 182.067624)"><g><path d="M 63.265625 -21.5625 C 66.898438 -21.5625 70.429688 -22.109375 73.859375 -23.203125 C 77.285156 -24.304688 79.800781 -25.363281 81.40625 -26.375 L 83.8125 -28.015625 L 93.953125 -7.734375 C 93.617188 -7.484375 93.15625 -7.144531 92.5625 -6.71875 C 91.96875 -6.300781 90.59375 -5.519531 88.4375 -4.375 C 86.28125 -3.226562 83.976562 -2.234375 81.53125 -1.390625 C 79.082031 -0.546875 75.867188 0.210938 71.890625 0.890625 C 67.921875 1.566406 63.820312 1.90625 59.59375 1.90625 C 49.875 1.90625 40.660156 -0.476562 31.953125 -5.25 C 23.242188 -10.03125 16.226562 -16.601562 10.90625 -24.96875 C 5.582031 -33.34375 2.921875 -42.390625 2.921875 -52.109375 C 2.921875 -59.460938 4.484375 -66.519531 7.609375 -73.28125 C 10.734375 -80.050781 14.894531 -85.84375 20.09375 -90.65625 C 25.289062 -95.476562 31.351562 -99.328125 38.28125 -102.203125 C 45.21875 -105.078125 52.320312 -106.515625 59.59375 -106.515625 C 66.351562 -106.515625 72.585938 -105.707031 78.296875 -104.09375 C 84.003906 -102.488281 88.039062 -100.882812 90.40625 -99.28125 L 93.953125 -96.875 L 83.8125 -76.578125 C 83.21875 -77.085938 82.328125 -77.703125 81.140625 -78.421875 C 79.960938 -79.140625 77.597656 -80.085938 74.046875 -81.265625 C 70.492188 -82.453125 66.898438 -83.046875 63.265625 -83.046875 C 57.523438 -83.046875 52.367188 -82.113281 47.796875 -80.25 C 43.234375 -78.394531 39.617188 -75.945312 36.953125 -72.90625 C 34.296875 -69.863281 32.269531 -66.585938 30.875 -63.078125 C 29.476562 -59.566406 28.78125 -55.992188 28.78125 -52.359375 C 28.78125 -44.421875 31.757812 -37.300781 37.71875 -31 C 43.675781 -24.707031 52.191406 -21.5625 63.265625 -21.5625 Z M 63.265625 -21.5625 "/></g></g></g><g fill="#000000" fill-opacity="1"><g transform="translate(831.746146, 182.067624)"><g><path d="M 13.75 -7.734375 C 6.53125 -14.160156 2.921875 -22.398438 2.921875 -32.453125 C 2.921875 -42.515625 6.679688 -50.78125 14.203125 -57.25 C 21.722656 -63.71875 31.019531 -66.953125 42.09375 -66.953125 C 53 -66.953125 62.191406 -63.695312 69.671875 -57.1875 C 77.148438 -50.675781 80.890625 -42.429688 80.890625 -32.453125 C 80.890625 -22.484375 77.234375 -14.265625 69.921875 -7.796875 C 62.609375 -1.328125 53.332031 1.90625 42.09375 1.90625 C 30.425781 1.90625 20.976562 -1.304688 13.75 -7.734375 Z M 31.125 -43.484375 C 28.207031 -40.617188 26.75 -36.941406 26.75 -32.453125 C 26.75 -27.972656 28.144531 -24.316406 30.9375 -21.484375 C 33.726562 -18.660156 37.40625 -17.25 41.96875 -17.25 C 46.363281 -17.25 49.976562 -18.679688 52.8125 -21.546875 C 55.644531 -24.421875 57.0625 -28.054688 57.0625 -32.453125 C 57.0625 -36.941406 55.601562 -40.617188 52.6875 -43.484375 C 49.769531 -46.359375 46.195312 -47.796875 41.96875 -47.796875 C 37.65625 -47.796875 34.039062 -46.359375 31.125 -43.484375 Z M 31.125 -43.484375 "/></g></g></g><g fill="#000000" fill-opacity="1"><g transform="translate(915.562933, 182.067624)"><g><path d="M 7.609375 0 L 7.609375 -65.046875 L 30.046875 -65.046875 L 30.046875 -58.203125 L 30.296875 -58.203125 C 36.128906 -64.035156 42.34375 -66.953125 48.9375 -66.953125 C 52.15625 -66.953125 55.347656 -66.523438 58.515625 -65.671875 C 61.679688 -64.828125 64.722656 -63.519531 67.640625 -61.75 C 70.554688 -59.976562 72.921875 -57.460938 74.734375 -54.203125 C 76.554688 -50.953125 77.46875 -47.171875 77.46875 -42.859375 L 77.46875 0 L 55.03125 0 L 55.03125 -36.765625 C 55.03125 -40.148438 53.953125 -43.109375 51.796875 -45.640625 C 49.640625 -48.179688 46.828125 -49.453125 43.359375 -49.453125 C 39.984375 -49.453125 36.921875 -48.140625 34.171875 -45.515625 C 31.421875 -42.898438 30.046875 -39.984375 30.046875 -36.765625 L 30.046875 0 Z M 7.609375 0 "/></g></g></g><g fill="#000000" fill-opacity="1"><g transform="translate(999.379721, 182.067624)"><g><path d="M 7.609375 0 L 7.609375 -65.046875 L 30.046875 -65.046875 L 30.046875 -58.203125 L 30.296875 -58.203125 C 36.128906 -64.035156 42.34375 -66.953125 48.9375 -66.953125 C 52.15625 -66.953125 55.347656 -66.523438 58.515625 -65.671875 C 61.679688 -64.828125 64.722656 -63.519531 67.640625 -61.75 C 70.554688 -59.976562 72.921875 -57.460938 74.734375 -54.203125 C 76.554688 -50.953125 77.46875 -47.171875 77.46875 -42.859375 L 77.46875 0 L 55.03125 0 L 55.03125 -36.765625 C 55.03125 -40.148438 53.953125 -43.109375 51.796875 -45.640625 C 49.640625 -48.179688 46.828125 -49.453125 43.359375 -49.453125 C 39.984375 -49.453125 36.921875 -48.140625 34.171875 -45.515625 C 31.421875 -42.898438 30.046875 -39.984375 30.046875 -36.765625 L 30.046875 0 Z M 7.609375 0 "/></g></g></g><g fill="#000000" fill-opacity="1"><g transform="translate(1083.196508, 182.067624)"><g><path d="M 73.421875 -29.421875 L 26.25 -29.421875 C 26.25 -24.847656 27.726562 -21.460938 30.6875 -19.265625 C 33.644531 -17.066406 36.859375 -15.96875 40.328125 -15.96875 C 43.960938 -15.96875 46.832031 -16.453125 48.9375 -17.421875 C 51.050781 -18.398438 53.460938 -20.328125 56.171875 -23.203125 L 72.40625 -15.09375 C 65.632812 -3.757812 54.390625 1.90625 38.671875 1.90625 C 28.867188 1.90625 20.457031 -1.453125 13.4375 -8.171875 C 6.425781 -14.898438 2.921875 -22.992188 2.921875 -32.453125 C 2.921875 -41.921875 6.425781 -50.035156 13.4375 -56.796875 C 20.457031 -63.566406 28.867188 -66.953125 38.671875 -66.953125 C 48.984375 -66.953125 57.375 -63.972656 63.84375 -58.015625 C 70.3125 -52.054688 73.546875 -43.535156 73.546875 -32.453125 C 73.546875 -30.929688 73.503906 -29.921875 73.421875 -29.421875 Z M 26.875 -41.84375 L 51.609375 -41.84375 C 51.097656 -45.226562 49.765625 -47.828125 47.609375 -49.640625 C 45.453125 -51.453125 42.6875 -52.359375 39.3125 -52.359375 C 35.59375 -52.359375 32.632812 -51.382812 30.4375 -49.4375 C 28.238281 -47.5 27.050781 -44.96875 26.875 -41.84375 Z M 26.875 -41.84375 "/></g></g></g><g fill="#000000" fill-opacity="1"><g transform="translate(1159.658761, 182.067624)"><g><path d="M 42.21875 -48.5625 C 38 -48.5625 34.363281 -47 31.3125 -43.875 C 28.269531 -40.75 26.75 -36.988281 26.75 -32.59375 C 26.75 -28.101562 28.269531 -24.296875 31.3125 -21.171875 C 34.363281 -18.046875 38 -16.484375 42.21875 -16.484375 C 44.25 -16.484375 46.171875 -16.734375 47.984375 -17.234375 C 49.804688 -17.742188 51.140625 -18.253906 51.984375 -18.765625 L 53.125 -19.53125 L 60.734375 -3.9375 C 60.140625 -3.507812 59.3125 -2.976562 58.25 -2.34375 C 57.195312 -1.707031 54.789062 -0.84375 51.03125 0.25 C 47.269531 1.351562 43.234375 1.90625 38.921875 1.90625 C 29.367188 1.90625 20.976562 -1.453125 13.75 -8.171875 C 6.53125 -14.898438 2.921875 -22.953125 2.921875 -32.328125 C 2.921875 -41.796875 6.53125 -49.929688 13.75 -56.734375 C 20.976562 -63.546875 29.367188 -66.953125 38.921875 -66.953125 C 43.234375 -66.953125 47.207031 -66.441406 50.84375 -65.421875 C 54.476562 -64.410156 57.054688 -63.398438 58.578125 -62.390625 L 60.734375 -60.859375 L 53.125 -45.515625 C 50.332031 -47.546875 46.695312 -48.5625 42.21875 -48.5625 Z M 42.21875 -48.5625 "/></g></g></g><g fill="#000000" fill-opacity="1"><g transform="translate(1221.919018, 182.067624)"><g><path d="M 11.40625 -65.046875 L 11.40625 -89.265625 L 33.859375 -89.265625 L 33.859375 -65.046875 L 47.546875 -65.046875 L 47.546875 -47.921875 L 33.859375 -47.921875 L 33.859375 -27.265625 C 33.859375 -21.265625 35.546875 -18.265625 38.921875 -18.265625 C 39.765625 -18.265625 40.648438 -18.429688 41.578125 -18.765625 C 42.515625 -19.097656 43.238281 -19.4375 43.75 -19.78125 L 44.5 -20.28125 L 50.078125 -2.15625 C 45.265625 0.550781 39.769531 1.90625 33.59375 1.90625 C 29.375 1.90625 25.738281 1.164062 22.6875 -0.3125 C 19.644531 -1.789062 17.34375 -3.773438 15.78125 -6.265625 C 14.21875 -8.765625 13.097656 -11.390625 12.421875 -14.140625 C 11.742188 -16.890625 11.40625 -19.828125 11.40625 -22.953125 L 11.40625 -47.921875 L 2.03125 -47.921875 L 2.03125 -65.046875 Z M 11.40625 -65.046875 "/></g></g></g></svg>